<?xml version="1.0" standalone="no"?>
<!DOCTYPE svg PUBLIC "-//W3C//DTD SVG 20010904//EN"
 "http://www.w3.org/TR/2001/REC-SVG-20010904/DTD/svg10.dtd">
<svg version="1.0" xmlns="http://www.w3.org/2000/svg"
 width="280.000000pt" height="280.000000pt" viewBox="0 0 280.000000 280.000000"
 preserveAspectRatio="xMidYMid meet">
<metadata>
Created by potrace 1.14, written by Peter Selinger 2001-2017
</metadata>
<g transform="translate(0.000000,280.000000) scale(0.100000,-0.100000)"
fill="#000000" stroke="none">
<path d="M1405 2518 c-389 -42 -743 -440 -788 -885 -24 -239 36 -392 196 -502
60 -41 146 -81 174 -81 12 0 24 -8 27 -17 6 -20 -36 -189 -50 -203 -5 -5 -42
-16 -83 -24 -136 -28 -236 -117 -261 -233 -14 -60 -5 -111 26 -160 51 -78 117
-100 230 -77 127 26 189 80 264 233 44 90 45 91 82 91 74 0 195 22 283 51 240
80 425 240 586 506 128 211 181 382 183 583 1 69 -2 145 -6 169 -10 59 -60
165 -103 216 -196 240 -480 364 -760 333z m342 -253 c205 -61 275 -358 172
-734 -30 -113 -134 -307 -223 -416 -58 -72 -162 -170 -226 -213 -77 -51 -220
-106 -220 -84 0 23 49 205 58 214 5 5 37 16 71 24 115 26 239 101 337 202 25
26 52 60 60 75 14 25 14 31 0 52 -19 29 -116 67 -177 68 -41 0 -52 -5 -119
-61 -40 -34 -77 -62 -82 -62 -34 0 65 202 133 270 54 54 89 65 224 74 44 3 81
5 82 6 1 0 7 9 13 20 9 17 6 25 -17 46 -70 65 -198 105 -327 100 -91 -3 -125
-16 -184 -74 -92 -91 -171 -248 -233 -464 -13 -46 -27 -78 -35 -78 -18 0 -59
55 -86 116 -33 73 -30 218 7 334 36 114 104 250 165 332 57 75 172 173 246
209 117 56 260 74 361 44z m-867 -1675 c-23 -50 -40 -64 -40 -34 0 18 17 52
38 77 26 29 27 10 2 -43z"/>
</g>
</svg>
