<?xml version="1.0" standalone="no"?>
<!DOCTYPE svg PUBLIC "-//W3C//DTD SVG 20010904//EN"
 "http://www.w3.org/TR/2001/REC-SVG-20010904/DTD/svg10.dtd">
<svg version="1.0" xmlns="http://www.w3.org/2000/svg"
 width="160.000000pt" height="160.000000pt" viewBox="0 0 160.000000 160.000000"
 preserveAspectRatio="xMidYMid meet">
<metadata>
Created by potrace 1.14, written by Peter Selinger 2001-2017
</metadata>
<g transform="translate(0.000000,160.000000) scale(0.100000,-0.100000)"
fill="#000000" stroke="none">
<path d="M763 1543 c-37 -17 -55 -52 -131 -258 -78 -209 -81 -215 -106 -216
-12 0 -52 -2 -91 -4 -38 -2 -133 -6 -210 -9 -155 -7 -163 -8 -186 -21 -19 -11
-36 -44 -33 -62 1 -7 2 -20 3 -28 2 -21 29 -45 214 -194 92 -73 167 -137 167
-142 0 -5 -9 -42 -20 -83 -12 -42 -23 -85 -25 -97 -2 -12 -12 -47 -21 -78 -9
-31 -18 -63 -19 -71 -2 -8 -4 -15 -5 -15 -1 0 -3 -9 -5 -20 -8 -54 -17 -100
-21 -104 -8 -9 29 -63 49 -70 31 -12 92 17 295 142 167 102 175 106 200 93 15
-8 98 -57 184 -110 219 -133 250 -144 289 -105 18 18 20 29 16 77 -6 61 -6 64
-32 162 -9 36 -18 72 -20 80 -2 8 -15 56 -28 106 -14 50 -22 96 -18 101 3 5
86 74 184 152 107 86 182 154 189 170 13 33 1 68 -32 92 -26 20 -53 22 -360
34 -86 4 -139 10 -147 18 -6 7 -30 62 -53 122 -23 61 -45 119 -50 130 -4 11
-19 47 -32 80 -40 104 -60 131 -104 140 -6 2 -25 -4 -41 -12z"/>
</g>
</svg>
