<?xml version="1.0" standalone="no"?>
<!DOCTYPE svg PUBLIC "-//W3C//DTD SVG 20010904//EN"
 "http://www.w3.org/TR/2001/REC-SVG-20010904/DTD/svg10.dtd">
<svg version="1.0" xmlns="http://www.w3.org/2000/svg"
 width="280.000000pt" height="280.000000pt" viewBox="0 0 280.000000 280.000000"
 preserveAspectRatio="xMidYMid meet">
<metadata>
Created by potrace 1.14, written by Peter Selinger 2001-2017
</metadata>
<g transform="translate(0.000000,280.000000) scale(0.100000,-0.100000)"
fill="#000000" stroke="none">
<path d="M7 2753 c7 -2 19 -2 26 0 6 3 1 5 -13 5 -14 0 -19 -2 -13 -5z"/>
<path d="M73 2753 c15 -2 39 -2 55 0 15 2 2 4 -28 4 -30 0 -43 -2 -27 -4z"/>
<path d="M213 2753 c15 -2 37 -2 50 0 12 2 0 4 -28 4 -27 0 -38 -2 -22 -4z"/>
<path d="M313 2753 c15 -2 39 -2 55 0 15 2 2 4 -28 4 -30 0 -43 -2 -27 -4z"/>
<path d="M453 2753 c15 -2 37 -2 50 0 12 2 0 4 -28 4 -27 0 -38 -2 -22 -4z"/>
<path d="M553 2753 c15 -2 39 -2 55 0 15 2 2 4 -28 4 -30 0 -43 -2 -27 -4z"/>
<path d="M693 2753 c15 -2 37 -2 50 0 12 2 0 4 -28 4 -27 0 -38 -2 -22 -4z"/>
<path d="M793 2753 c15 -2 39 -2 55 0 15 2 2 4 -28 4 -30 0 -43 -2 -27 -4z"/>
<path d="M933 2753 c15 -2 37 -2 50 0 12 2 0 4 -28 4 -27 0 -38 -2 -22 -4z"/>
<path d="M1033 2753 c15 -2 39 -2 55 0 15 2 2 4 -28 4 -30 0 -43 -2 -27 -4z"/>
<path d="M1173 2753 c15 -2 37 -2 50 0 12 2 0 4 -28 4 -27 0 -38 -2 -22 -4z"/>
<path d="M1273 2753 c15 -2 39 -2 55 0 15 2 2 4 -28 4 -30 0 -43 -2 -27 -4z"/>
<path d="M1413 2753 c15 -2 37 -2 50 0 12 2 0 4 -28 4 -27 0 -38 -2 -22 -4z"/>
<path d="M1513 2753 c15 -2 39 -2 55 0 15 2 2 4 -28 4 -30 0 -43 -2 -27 -4z"/>
<path d="M1653 2753 c15 -2 37 -2 50 0 12 2 0 4 -28 4 -27 0 -38 -2 -22 -4z"/>
<path d="M1753 2753 c15 -2 39 -2 55 0 15 2 2 4 -28 4 -30 0 -43 -2 -27 -4z"/>
<path d="M1893 2753 c15 -2 37 -2 50 0 12 2 0 4 -28 4 -27 0 -38 -2 -22 -4z"/>
<path d="M1993 2753 c15 -2 39 -2 55 0 15 2 2 4 -28 4 -30 0 -43 -2 -27 -4z"/>
<path d="M2133 2753 c15 -2 37 -2 50 0 12 2 0 4 -28 4 -27 0 -38 -2 -22 -4z"/>
<path d="M2233 2753 c15 -2 39 -2 55 0 15 2 2 4 -28 4 -30 0 -43 -2 -27 -4z"/>
<path d="M2373 2753 c15 -2 37 -2 50 0 12 2 0 4 -28 4 -27 0 -38 -2 -22 -4z"/>
<path d="M2473 2753 c15 -2 39 -2 55 0 15 2 2 4 -28 4 -30 0 -43 -2 -27 -4z"/>
<path d="M2613 2753 c15 -2 37 -2 50 0 12 2 0 4 -28 4 -27 0 -38 -2 -22 -4z"/>
<path d="M2713 2753 c15 -2 39 -2 55 0 15 2 2 4 -28 4 -30 0 -43 -2 -27 -4z"/>
<path d="M1405 2518 c-427 -46 -797 -510 -795 -998 1 -164 71 -298 203 -389
60 -41 146 -81 175 -81 12 0 23 -4 23 -10 1 -5 2 -16 3 -22 2 -20 -40 -178
-50 -188 -5 -5 -42 -16 -83 -24 -136 -28 -236 -117 -261 -233 -14 -60 -5 -111
26 -160 51 -78 117 -100 230 -77 127 26 189 80 264 233 44 90 45 91 82 91 74
0 195 22 283 51 240 80 425 240 586 506 128 211 181 382 183 583 1 69 -2 145
-6 169 -10 59 -60 165 -103 216 -196 240 -480 364 -760 333z m342 -253 c205
-61 275 -358 173 -733 -31 -112 -137 -309 -224 -417 -58 -72 -162 -170 -226
-213 -77 -51 -220 -106 -220 -84 0 23 49 205 58 214 5 5 37 16 71 24 115 26
239 101 337 202 25 26 52 60 60 75 14 25 14 31 0 52 -19 29 -116 67 -177 68
-41 0 -52 -5 -119 -61 -40 -34 -77 -62 -82 -62 -34 0 65 202 133 270 54 54 89
65 224 74 44 3 81 5 82 6 1 0 7 9 13 20 9 17 6 25 -17 46 -70 65 -198 105
-327 100 -91 -3 -125 -16 -184 -74 -92 -91 -171 -248 -233 -464 -13 -46 -27
-78 -35 -78 -18 0 -59 55 -86 116 -33 73 -30 218 7 334 36 114 104 250 165
332 57 75 172 173 246 209 117 56 260 74 361 44z m-867 -1675 c-23 -50 -40
-64 -40 -34 0 18 17 52 38 77 26 29 27 10 2 -43z"/>
</g>
</svg>
